<?xml version="1.0" encoding="UTF-8"?>
<svg width="610px" height="143px" viewBox="0 0 610 143" version="1.1" xmlns="http://www.w3.org/2000/svg" xmlns:xlink="http://www.w3.org/1999/xlink">
    <!-- Generator: Sketch 49.3 (51167) - http://www.bohemiancoding.com/sketch -->
    <title>Group</title>
    <desc>Created with Sketch.</desc>
    <defs>
        <text id="text-1" font-family="Megrim" font-size="163" font-weight="400">
            <tspan x="147" y="178" fill="#FFFFFF">BL</tspan>
            <tspan x="328.093" y="178" fill="#328456">A</tspan>
            <tspan x="417.091" y="178" fill="#FFFFFF">DE</tspan>
        </text>
        <filter x="-1.2%" y="-2.8%" width="102.8%" height="108.0%" filterUnits="objectBoundingBox" id="filter-2">
            <feOffset dx="1" dy="2" in="SourceAlpha" result="shadowOffsetOuter1"></feOffset>
            <feGaussianBlur stdDeviation="2" in="shadowOffsetOuter1" result="shadowBlurOuter1"></feGaussianBlur>
            <feColorMatrix values="0 0 0 0 0   0 0 0 0 0   0 0 0 0 0  0 0 0 0.5 0" type="matrix" in="shadowBlurOuter1"></feColorMatrix>
        </filter>
        <filter x="-5.2%" y="-3.7%" width="110.4%" height="110.4%" filterUnits="objectBoundingBox" id="filter-3">
            <feOffset dx="0" dy="2" in="SourceAlpha" result="shadowOffsetOuter1"></feOffset>
            <feGaussianBlur stdDeviation="2" in="shadowOffsetOuter1" result="shadowBlurOuter1"></feGaussianBlur>
            <feColorMatrix values="0 0 0 0 0   0 0 0 0 0   0 0 0 0 0  0 0 0 0.5 0" type="matrix" in="shadowBlurOuter1" result="shadowMatrixOuter1"></feColorMatrix>
            <feMerge>
                <feMergeNode in="shadowMatrixOuter1"></feMergeNode>
                <feMergeNode in="SourceGraphic"></feMergeNode>
            </feMerge>
        </filter>
        <linearGradient x1="0%" y1="0%" x2="101.999998%" y2="100.999999%" id="linearGradient-4">
            <stop stop-color="#3023AE" offset="0%"></stop>
            <stop stop-color="#C86DD7" offset="100%"></stop>
        </linearGradient>
        <radialGradient cx="50%" cy="0%" fx="50%" fy="0%" r="97.351427%" id="radialGradient-5">
            <stop stop-color="#51EC79" offset="0%"></stop>
            <stop stop-color="#236907" offset="100%"></stop>
        </radialGradient>
        <linearGradient x1="50%" y1="0%" x2="50%" y2="100%" id="linearGradient-6">
            <stop stop-color="#F5515F" offset="0%"></stop>
            <stop stop-color="#9F041B" offset="100%"></stop>
        </linearGradient>
    </defs>
    <g id="左右LOGO" stroke="none" stroke-width="1" fill="none" fill-rule="evenodd">
        <g id="Group" transform="translate(4.000000, -51.000000)">
            <g id="blade" fill="#FFFFFF" fill-opacity="1">
                <use filter="url(#filter-2)" xlink:href="#text-1"></use>
                <use xlink:href="#text-1"></use>
            </g>
            <g id="19949" filter="url(#filter-3)" transform="translate(0.000000, 53.000000)" fill-rule="nonzero">
                <path d="M96.3120748,35 C95.5859379,35 94.9986796,35.4485887 95.0000022,36 C95.0000022,36.2762097 95.1454941,36.5262097 95.3835718,36.7066532 C95.6216495,36.8881048 95.9496677,37 96.3120748,37 L111.689248,37 C112.412739,37 113.00132,36.5534274 112.999998,36.0010081 C113.00132,35.4475806 112.412739,35.0010081 111.687925,35 L96.3120748,35 Z" id="Shape" fill="url(#linearGradient-4)"></path>
                <path d="M124,25 C124,24.4475806 123.412785,24 122.688024,24 L107.311976,24 C106.587215,24 106,24.4475806 106,25 C106,25.2752016 106.146804,25.5262097 106.383542,25.7066532 C106.621602,25.8881048 106.950918,26 107.313299,26 L122.688024,26 C123.412785,25.9989919 124,25.5524194 124,25 Z" id="Shape" fill="url(#linearGradient-4)"></path>
                <path d="M25.53525,115.29 C24.6618,115.317 23.83695,115.3143 23.05665,115.29 L22.8177,115.29 L22.8177,115.28325 C17.95095,115.10775 15.0417,114.12225 15.0417,114.12225 L76.68,52.48395 L103.5045,51.9129 C103.5045,51.9129 82.38645,66.18105 76.67865,71.88885 C70.9722,77.59665 89.23635,71.31645 63.8388,96.71535 C54.62505,105.9291 45.67995,110.73645 38.01465,113.13675 L134.622,113.13675 C134.8515,111.7476 135,110.33415 135,108.88155 L135,26.1198 C135,25.9443 134.97705,25.7742 134.973,25.60005 L111.672,48.90105 L77.37525,48.90105 C77.4171,45.3681 78.77655,41.8446 81.45765,39.1635 L118.6974,1.9251 C115.6653,0.69255 112.35645,0 108.8802,0 L26.1198,0 C11.6937,0 0,11.6937 0,26.1198 L0,108.8829 C0,123.3063 11.6937,135 26.1198,135 L108.88155,135 C121.09095,135 131.3145,126.60975 134.17515,115.29 L25.53525,115.29 Z" id="Shape" fill="url(#radialGradient-5)"></path>
                <path d="M133,14.9869018 C132.646029,14.306801 132.254515,13.6418136 131.805347,13 L117.330073,13 C116.595315,13 116,13.4473552 116,13.9994962 C116,14.2755668 116.148829,14.5244332 116.390173,14.7057935 C116.630176,14.8871537 116.962694,15 117.330073,15 L132.918211,14.9989924 C132.947709,14.9989924 132.970502,14.9889169 133,14.9869018 Z" id="Shape" fill="url(#linearGradient-4)"></path>
                <path d="M48.0913418,99.6352406 L68.6329352,79.0913157 C70.0869578,77.6359756 70.4373732,75.611388 69.4116361,74.5883537 C68.3885842,73.5626343 66.3626192,73.9130437 64.9085966,75.3670413 L44.3670032,95.9109661 C42.9143232,97.360936 42.5625652,99.3895513 43.5869597,100.413928 C44.6113542,101.436962 46.6400044,101.08521 48.0913418,99.6352406 Z" id="Shape" fill="url(#linearGradient-6)"></path>
                <g id="血滴" transform="translate(56.000000, 95.000000)" fill="url(#linearGradient-6)">
                    <path d="M9.26206061,11.852381 L9.26545455,11.852381 L4.94624242,4.6000974 L0.626818182,11.852381 L0.630424242,11.852381 C0.26769697,12.5142965 0.0613030303,13.2689502 0.0613030303,14.0706926 C0.0613030303,16.6860714 2.24827273,18.8062987 4.94624242,18.8062987 C7.64421212,18.8062987 9.83139394,16.6858658 9.83139394,14.0706926 C9.83139394,13.2689502 9.62521212,12.5142965 9.26206061,11.852381 Z M4.02945455,17.5811688 C3.96051515,17.5885714 3.87693939,17.5922727 3.78233333,17.5840476 C3.68645455,17.5805519 3.57678788,17.5747944 3.46118182,17.5503247 C3.40284848,17.539632 3.34175758,17.5283225 3.2789697,17.5141342 C3.21766667,17.4956277 3.15424242,17.47671 3.08912121,17.4569697 C2.95633333,17.4199567 2.82842424,17.3555952 2.69139394,17.2953463 C2.56242424,17.2229654 2.42348485,17.1528463 2.3000303,17.0582576 C2.16893939,16.9725108 2.05290909,16.86579 1.93390909,16.7625649 C1.82509091,16.6496753 1.71118182,16.540487 1.62018182,16.4164935 C1.52133333,16.2986688 1.44136364,16.1705628 1.365,16.0473918 C1.29436364,15.9207251 1.22860606,15.7973485 1.17981818,15.6745887 C1.13060606,15.5520346 1.08754545,15.435855 1.06081818,15.3241991 C1.029,15.2154221 1.01033333,15.1109632 0.998878788,15.0174026 C0.982969697,14.925487 0.977242424,14.8459091 0.977666667,14.7809307 C0.975333333,14.6505628 0.981060606,14.5740693 0.981060606,14.5740693 C0.981060606,14.5740693 1.02836364,14.6355519 1.09857576,14.7470022 C1.13145455,14.8041667 1.1800303,14.8681169 1.22775758,14.9402922 C1.27463636,15.0128788 1.33212121,15.0918398 1.39554545,15.1782035 C1.45409091,15.2660065 1.52578788,15.3556602 1.59748485,15.4508658 C1.66790909,15.5466883 1.75127273,15.6412771 1.83060606,15.7412121 C1.91672727,15.8370346 2.00009091,15.9386147 2.09384848,16.0342316 C2.18251515,16.133961 2.28263636,16.2254654 2.37787879,16.3210823 C2.47842424,16.4113528 2.57642424,16.5045022 2.68057576,16.5873701 C2.78090909,16.67579 2.88887879,16.7496104 2.98878788,16.8306277 C3.09612121,16.8986905 3.19306061,16.9803247 3.29636364,17.0385173 C3.39627273,17.1039069 3.493,17.1643615 3.58654545,17.2141234 C3.6779697,17.2700541 3.76536364,17.3157035 3.84469697,17.3560065 C3.92360606,17.397132 3.99339394,17.43579 4.05342424,17.4608766 C4.17221212,17.5163961 4.24221212,17.555671 4.24221212,17.555671 C4.24221212,17.555671 4.16648485,17.5696537 4.02945455,17.5811688 Z" id="Shape"></path>
                    <path d="M13.6396061,4.69262987 L13.6417273,4.69262987 L10.9634848,0.195963203 L8.28524242,4.69262987 L8.28736364,4.69262987 C8.06230303,5.10306277 7.93439394,5.5708658 7.93439394,6.06807359 C7.93439394,7.68965368 9.29048485,9.00443723 10.9632727,9.00443723 C12.6362727,9.00443723 13.9921515,7.68965368 13.9921515,6.06807359 C13.9925758,5.5708658 13.8646667,5.10306277 13.6396061,4.69262987 Z M10.395,8.24464286 C10.3523636,8.24937229 10.3003939,8.25142857 10.2416364,8.24649351 C10.1822424,8.2442316 10.1141515,8.24073593 10.0426667,8.22551948 C10.0066061,8.21893939 9.96863636,8.21194805 9.92960606,8.20310606 C9.89163636,8.19159091 9.85218182,8.17987013 9.81187879,8.1677381 C9.72957576,8.14470779 9.65024242,8.10481602 9.56518182,8.06739177 C9.48521212,8.02256494 9.39909091,7.97897186 9.32251515,7.92036797 C9.24127273,7.86731602 9.16936364,7.8011039 9.09554545,7.73694805 C9.02809091,7.666829 8.95745455,7.59938312 8.9010303,7.52247835 C8.83972727,7.44948052 8.79009091,7.3699026 8.74278788,7.29361472 C8.69887879,7.21506494 8.65815152,7.13857143 8.6280303,7.06248918 C8.59748485,6.98640693 8.57075758,6.91443723 8.55421212,6.84514069 C8.53448485,6.77769481 8.5230303,6.71292208 8.51581818,6.65493506 C8.50584848,6.59797619 8.50245455,6.54862554 8.50266667,6.50832251 C8.50118182,6.42751082 8.50478788,6.38001082 8.50478788,6.38001082 C8.50478788,6.38001082 8.53406061,6.41825758 8.57754545,6.48714286 C8.59790909,6.52271645 8.6280303,6.56219697 8.65751515,6.60702381 C8.68657576,6.65205628 8.72221212,6.70099567 8.76166667,6.75445887 C8.79793939,6.80895022 8.84248485,6.8644697 8.88681818,6.92348485 C8.93051515,6.98291126 8.98206061,7.04151515 9.03148485,7.10340909 C9.08493939,7.1628355 9.13648485,7.22575758 9.19460606,7.28518398 C9.24954545,7.34707792 9.31169697,7.40383117 9.37066667,7.46305195 C9.4330303,7.51898268 9.49369697,7.57676407 9.55839394,7.628171 C9.62054545,7.68307359 9.68757576,7.72892857 9.74951515,7.77910173 C9.81612121,7.82125541 9.87615152,7.87183983 9.94021212,7.9080303 C10.0021515,7.94853896 10.0621818,7.9859632 10.120303,8.01701299 C10.1769394,8.05176407 10.2312424,8.07993506 10.2804545,8.10502165 C10.3294545,8.13051948 10.3727273,8.15457792 10.4098485,8.17 C10.4834545,8.20433983 10.5269394,8.22880952 10.5269394,8.22880952 C10.5269394,8.22880952 10.4800606,8.23765152 10.395,8.24464286 Z" id="Shape"></path>
                </g>
            </g>
        </g>
    </g>
</svg>