<?xml version="1.0" encoding="UTF-8"?>
<svg width="87px" height="74px" viewBox="0 0 87 74" version="1.1" xmlns="http://www.w3.org/2000/svg" xmlns:xlink="http://www.w3.org/1999/xlink">
    <!-- Generator: Sketch 49.3 (51167) - http://www.bohemiancoding.com/sketch -->
    <title>3 神奇宝贝-01</title>
    <desc>Created with Sketch.</desc>
    <defs></defs>
    <g id="Page-1" stroke="none" stroke-width="1" fill="none" fill-rule="evenodd">
        <g id="3-神奇宝贝-01" transform="translate(0.000000, -2.000000)" fill-rule="nonzero">
            <path d="M11.9625,38.69375 C11.9625,58.8141738 28.2733262,75.125 48.39375,75.125 C68.5141738,75.125 84.825,58.8141738 84.825,38.69375 C84.825,18.5733262 68.5141738,2.2625 48.39375,2.2625 C28.2733262,2.2625 11.9625,18.5733262 11.9625,38.69375 Z" id="Shape" fill="#BCE8C4"></path>
            <path d="M31.5179062,33.9490829 C31.5179062,33.9490829 31.5179062,30.4849826 23.0567523,27.2259197 C13.7514398,24.6240995 3.32058225,21.8153696 2.20249122,22.7740828 C1.84842906,23.6653864 4.75639747,35.3300418 20.1851219,38.4430508 C26.1585232,39.6489321 30.7380377,40.1648022 30.7380377,40.1648022 C30.7380377,40.1648022 30.5516892,49.7060578 31.4610699,53.4060913 C32.7291714,58.5395134 37.8640045,65.9021307 46.4490801,66.2625844 C55.0341557,66.6230381 62.9297418,65.6727511 66.1051203,63.6279957 C69.2804988,61.5832404 73.0987797,53.3761315 73.7165249,51.034587 C74.3342702,48.6930425 74.3547686,46.5406191 73.119278,44.8329113 C71.8837874,43.1252035 69.7650049,39.5206668 69.3261542,38.3503627 C68.8873035,37.1800585 67.9145643,33.0381181 66.6800054,31.867814 C65.4454466,30.6975099 73.213384,25.1671207 76.7316437,21.8968228 C82.3854574,16.6388804 87.1317538,4.47146233 85.63258,3.39103756 C84.1334063,2.31061278 72.2238734,8.18834827 67.0834499,15.4938548 C63.3946813,20.7368173 59.3602362,27.1912787 59.3602362,27.1912787 C59.3602362,27.1912787 52.4448432,25.0678789 45.8583553,26.8682747 C39.2718674,28.6686706 32.3415666,32.9847523 31.5179062,33.9490829 Z" id="Shape" fill="#FFD822"></path>
            <path d="M47.6184049,70.6875 C46.6335755,70.6875 45.6412522,70.6668255 44.641435,70.6254764 C39.1464992,70.3989965 35.1803284,67.2940593 32.8244192,64.7285391 C30.0507225,61.7109988 28.3121271,58.1502824 27.8194002,55.9634819 C27.0081806,52.3595369 28.2240733,44.0718732 28.6249994,41.5655574 C26.5501131,41.7779411 20.4406738,42.2290215 14.8614312,40.9143099 C10.0550017,39.78191 6.3089656,35.4562363 4.01019773,32.0270851 C1.56248769,28.3686346 0,24.5851972 0,23.8202399 C0.00122916995,23.5745276 0.119188885,23.3441342 0.317555952,23.2000043 C0.570476622,23.0064156 1.24212151,22.491432 6.47008543,23.3475452 C9.8742103,23.9048175 14.2843974,24.9075318 18.8884903,26.1714968 C27.3322937,28.4889227 30.7766985,31.8569901 31.8577002,33.1839185 C33.1878756,31.8955199 37.3479522,28.336683 44.389451,26.4449643 C50.9653884,24.6782325 57.3165075,25.8049939 58.9520611,26.1527018 C59.8560184,24.635004 63.6357773,18.4213706 67.6918754,13.6897245 C69.8885383,11.1260839 73.7610347,8.23916889 78.0513187,5.9565138 C79.9004498,4.97447404 81.7046172,4.18226398 83.12472,3.72648476 C85.3522954,3.01227403 86.0913858,3.27070554 86.4539054,3.52725756 C86.7349283,3.72836426 86.9138463,4.05633735 86.9756714,4.50083955 C87.3943956,7.52307866 82.3106901,17.4318128 79.2325519,21.2519005 C77.7131544,23.1379807 75.0172074,25.2871911 72.6444368,27.1826688 C71.3329963,28.2286117 70.0964953,29.2162899 69.200032,30.0432708 C68.1002954,31.0572621 67.9148203,31.4754512 67.8839078,31.5985586 C69.0295447,32.7112238 69.8904117,35.5163804 70.5208399,37.5716158 C70.6988211,38.1533216 70.8533838,38.6551486 70.965793,38.9492907 C71.4341646,40.1709669 73.792884,44.1273185 75.1736435,46.0058807 C76.7220801,48.1137421 75.9792427,50.8803689 75.2607606,53.5558399 C74.865455,55.0274899 73.4903159,57.9153446 71.9896533,60.4226002 C70.6060836,62.7343876 68.5237034,65.7660242 66.4375762,67.0816755 C64.5509754,68.2732798 61.5580808,69.2431028 57.7839423,69.8858924 C54.6758283,70.4168517 51.2070682,70.6875 47.6184049,70.6875 Z M29.9420603,40.3034718 L29.8165367,41.0308391 C29.7978019,41.1379707 27.988014,51.7440001 28.8797935,55.7191466 C29.8896027,60.2064575 35.7395641,69.1575854 44.6845251,69.5334858 C54.9493574,69.9573135 62.7149587,68.1426544 65.8549219,66.1579004 C69.1972218,64.0462799 73.4940629,55.9296509 74.2069245,53.2720351 C74.8879368,50.7347075 75.5314794,48.3364631 74.2940416,46.6524293 C72.9657397,44.83871 70.4918009,40.7489138 69.9522368,39.3392873 C69.8257765,39.0103745 69.6712138,38.5160655 69.4838652,37.8911311 C68.9508583,36.1535315 68.058142,33.2450023 67.1073476,32.3588172 C66.8952332,32.1625357 66.780668,31.8820853 66.7944754,31.5929201 C66.8366288,30.4755562 68.5986428,29.0189422 71.9709184,26.3303147 C74.3024723,24.4696078 76.9459617,22.3598669 78.389483,20.566822 C80.0540757,18.4993699 82.2685367,14.706535 83.9003434,11.1242044 C84.7228039,9.318003 85.3288768,7.71854686 85.6520532,6.49781035 C86.1148043,4.74799406 85.8309711,4.42096072 85.8281609,4.41814147 C85.4871864,4.17662547 83.1809246,4.46888802 78.5637172,6.92163804 C74.3877159,9.13945032 70.6332491,11.9361492 68.5199564,14.401116 C63.9580169,19.7248052 59.733305,26.9740441 59.6911515,27.0464049 L59.485068,27.4044501 L59.0897624,27.310475 C59.0185699,27.2926197 51.8693457,25.5728754 44.6723475,27.5068829 C37.7507518,29.3591321 33.3302606,33.0984012 32.2061687,34.3830407 L31.712505,34.9468913 L31.3303138,34.3022221 C31.2890971,34.2354998 28.5819092,29.9624522 18.5999734,27.2221384 C14.1036059,25.9873056 9.77959923,25.0005671 6.4326157,24.4451743 C2.79243154,23.8427939 1.52970168,23.9395883 1.13439604,24.0213466 C1.38731671,24.932905 2.66878144,28.087649 4.98534742,31.521499 C7.16046518,34.7457846 10.6835564,38.808328 15.1106049,39.8523913 C21.6162866,41.3860649 29.1327142,40.4115432 29.2085904,40.4012059 L29.9420603,40.3034718 Z" id="Shape" fill="#505050"></path>
            <path d="M76.125,48.6911155 C76.125,51.788746 74.9392583,54.4259437 74.677977,54.3742527 C72.4138564,53.9272214 70.6875,51.6212289 70.6875,48.844274 C70.6875,46.7574896 71.9606522,44.4658557 73.4048248,43.5 C74.000546,44.737712 75.7687074,45.9026738 76.125,48.6911155 Z" id="Shape" fill="#EC4304"></path>
            <path d="M74.2725811,54.3749867 C74.2301854,54.3751968 74.1878677,54.3714333 74.1462169,54.3637486 C71.5118612,53.8617775 69.6,51.3406838 69.6,48.3700638 C69.6,46.2160833 70.9041556,43.7586726 72.6337051,42.6442218 L73.2211539,42.2696165 L73.5279005,42.8858422 C73.6870615,43.2051932 73.9677637,43.5470206 74.2928379,43.9422292 C75.0442708,44.8572026 76.0735119,46.1093208 76.3436033,48.1481102 L76.3484264,48.1855707 L76.3484264,48.2239677 C76.3484264,51.1365239 75.2969992,53.7596975 74.7249842,54.2176525 C74.5980171,54.3202607 74.4377758,54.3759886 74.2725811,54.3749867 Z M72.8121583,44.0246423 C71.6825976,45.0463783 70.8308451,46.8585314 70.8308451,48.3681908 C70.8308451,50.6392354 72.1649036,52.5759448 74.0487911,53.1135034 C74.4105206,52.4579441 75.1098644,50.5109331 75.1185459,48.2567457 C74.8851098,46.5710218 74.0574726,45.5680162 73.3311197,44.6811381 C73.148808,44.4573114 72.9713193,44.2419134 72.8121583,44.0246423 Z M78.2872967,6.47327071 C78.2872967,6.47327071 80.303336,8.0353748 80.6496318,10.62858 C81.1435132,14.3249978 80.0081647,18.728483 80.0081647,18.728483 L85.5170645,9.57406607 L86.9794165,5.70345682 C86.9794165,5.70345682 87.4134919,2.68226509 84.294901,3.3621737 C81.17631,4.04208232 78.2872967,6.47327071 78.2872967,6.47327071 Z" id="Shape" fill="#505050"></path>
            <path d="M83.3235296,5.85958601 L82.3266029,8.63342212 L81.9263429,9.33377059 C81.709014,8.50923458 81.3783861,7.72027807 80.9443096,6.99040649 C81.6900031,6.51750336 82.4888447,6.13814063 83.3235296,5.86053628 L83.3235296,5.85958601 Z M84.1091562,3.2625 C83.8370717,3.26552028 83.5661313,3.29897954 83.3011895,3.36227828 C80.2917927,4.04742245 77.5039351,6.52382426 77.5039351,6.52382426 C77.5039351,6.52382426 79.4493849,8.10887346 79.7835555,10.7401692 C80.2601442,14.4908821 79.1645487,18.9590484 79.1645487,18.9590484 L84.4814911,9.67016593 L85.8926404,5.74270289 C85.8926404,5.74270289 86.2314651,3.2625 84.110087,3.2625 L84.1091562,3.2625 Z M10.8289939,25.1909145 C11.0793891,25.8827106 8.55588933,28.1101418 8.74671097,31.7696289 C8.77580954,32.385928 8.89438809,32.9944005 9.09856745,33.5751406 C9.11520461,33.6204673 9.09823575,33.6714835 9.05800293,33.6970963 C9.0177701,33.722709 8.9654283,33.7158169 8.93287842,33.6806205 C7.8354213,32.4870822 4.79437601,29.1535375 3.96406919,27.8516686 C2.9448024,26.2542659 2.175,23.5821086 2.175,23.5821086 C2.175,23.5821086 10.5795295,24.5000687 10.8289939,25.1909145 Z" id="Shape" fill="#505050"></path>
            <path d="M9.25086332,34.7990422 C8.99883668,34.7992399 8.75796764,34.6952318 8.5854447,34.5117124 C7.31213644,33.1555154 4.25638839,29.8722928 3.3771537,28.523758 C2.27451477,26.8333006 1.46910895,24.1180334 1.43555037,24.0059748 L1.0875,22.8375 L2.299444,22.9667984 C2.32149678,22.9667984 4.50472185,23.2033667 6.69082338,23.5203873 C7.9852256,23.7119406 9.03129435,23.8881695 9.80026515,24.0557786 C11.2173959,24.3651371 11.7063923,24.6122408 11.8924027,25.1169836 C12.1158069,25.7222918 11.7744682,26.2969516 11.3027305,27.0928553 C10.6574471,28.1799199 9.68233073,29.822489 9.7973887,31.9860829 C9.82348749,32.5250832 9.92913845,33.0572777 10.1109217,33.5654394 C10.2132992,33.8470667 10.1720383,34.1608463 10.0003237,34.4065103 C9.8286091,34.6521744 9.54793372,34.7989742 9.24798687,34.8 L9.25086332,34.7990422 Z M3.3886595,24.7271727 C3.70602775,25.6054444 4.18927124,26.7940322 4.73771425,27.634951 C5.28615727,28.4758697 6.86245152,30.248695 8.15781256,31.6575691 C8.15301848,29.2123919 9.23743989,27.3811429 9.90861141,26.2595987 C9.99394607,26.114976 10.0898277,25.9540713 10.1703683,25.8113641 C9.0456766,25.4933857 6.16922723,25.0556865 3.3886595,24.7271727 Z" id="Shape" fill="#505050"></path>
            <path d="M34.8,56.00625 C34.8,58.1083838 36.5041162,59.8125 38.60625,59.8125 C40.7083838,59.8125 42.4125,58.1083838 42.4125,56.00625 C42.4125,53.9041162 40.7083838,52.2 38.60625,52.2 C36.5041162,52.2 34.8,53.9041162 34.8,56.00625 Z" id="Shape" fill="#EC4304"></path>
            <path d="M38.0625,61.9875 C35.0594517,61.9875 32.625,59.5530483 32.625,56.55 C32.625,53.5469517 35.0594517,51.1125 38.0625,51.1125 C41.0655483,51.1125 43.5,53.5469517 43.5,56.55 C43.4962784,59.5515054 41.0640054,61.9837784 38.0625,61.9875 Z M38.0625,52.2530723 C35.6899053,52.2530723 33.7665373,54.1764403 33.7665373,56.549035 C33.7665373,58.9216298 35.6899053,60.8449978 38.0625,60.8449978 C40.4350947,60.8449978 42.3584627,58.9216298 42.3584627,56.549035 C42.3552734,54.1777627 40.4337724,52.2562617 38.0625,52.2530723 Z" id="Shape" fill="#505050"></path>
            <path d="M44.5875,44.04375 C44.5875,46.1458838 42.8833838,47.85 40.78125,47.85 C38.2509793,47.85 36.975,46.145682 36.975,44.04375 C36.975,41.941818 38.8302306,40.2375 40.78125,40.2375 C43.2762776,40.2375 44.5875,41.941818 44.5875,44.04375 Z" id="Shape" fill="#000000"></path>
            <path d="M40.8560567,44.5510084 C42.0289068,44.7689688 43.1895485,43.9881429 43.4484224,42.8069849 C43.7072964,41.6258269 42.9663723,40.4916173 41.7935222,40.2736569 C41.0348212,40.1326613 40.2444126,40.4100052 39.7200357,41.001216 C39.1956588,41.5924267 39.0169789,42.4076853 39.251303,43.1398917 C39.485627,43.8720981 40.0973557,44.4100128 40.8560567,44.5510084 Z" id="Shape" fill="#FFFFFF"></path>
            <path d="M66.7539389,39.043106 C67.6839517,40.7052068 67.7247247,42.5356217 66.3840695,43.2760029 C65.2298051,43.9131917 63.5765568,43.1517711 62.6465439,41.4896703 C61.7165311,39.8275695 61.7107064,38.03222 63.0164133,37.2567734 C64.3221203,36.4813267 65.823926,37.3810051 66.7539389,39.043106 Z" id="Shape" fill="#000000"></path>
            <path d="M64.3038505,40.1631973 C64.8685827,40.3370543 65.4671469,40.2009216 65.8740443,39.8060848 C66.2809416,39.411248 66.4343465,38.8177003 66.2764662,38.2490506 C66.118586,37.6804009 65.6734095,37.2230521 65.1086495,37.0493027 C64.5439173,36.8754457 63.9453531,37.0115784 63.5384557,37.4064152 C63.1315584,37.801252 62.9781535,38.3947997 63.1360338,38.9634494 C63.293914,39.5320991 63.7390905,39.9894479 64.3038505,40.1631973 Z" id="Shape" fill="#FFFFFF"></path>
            <path d="M48.9375,48.9248956 C49.6167322,48.7950422 50.4823107,49.0837092 51.1839045,49.1192087 C51.9292897,49.1565766 52.6905143,49.1079983 53.3753369,48.7810292 C54.197124,48.3886662 55.3953306,46.675348 56.3242669,46.7659652 C56.9569125,46.8276222 57.4553889,47.5675066 58.1271672,47.7001627 C58.627507,47.7991876 59.1520718,47.7001627 59.6263231,47.5133232 C60.0772811,47.3330231 60.4648814,47.0406192 60.9,46.8350958 C60.8934779,47.0649084 60.9,47.3124707 60.8822971,47.5450859 C60.8142807,48.2466682 60.7630355,48.9538557 60.6689306,49.6526355 C60.4751305,51.097839 60.3800939,52.5673317 60.1937476,54.0200088 C59.9487022,55.9276401 59.5909173,57.8315346 58.9694524,59.6550881 C58.641162,60.5988315 58.2421755,61.5163372 57.7759045,62.3997604 C57.4879995,62.9546737 56.9960453,64.091592 56.2571822,64.1588543 C55.3329046,64.242932 54.4170126,62.8509778 53.9586007,62.2353416 C53.1760424,61.209173 52.501304,60.1046947 51.9451291,58.9394928 C51.085141,57.0879134 50.5074675,55.1214276 50.0006056,53.1474683 C49.7602189,52.2132708 49.5114466,51.2846785 49.2617425,50.3523494 C49.138754,49.8852506 49.0157654,49.385455 48.9375,48.9248956 Z" id="Shape" fill="#892727"></path>
            <path d="M56.718557,65.25 C55.6297658,65.25 54.7376655,64.0241498 54.1960665,63.2804176 L54.0674251,63.1038279 C53.1669351,61.8891897 52.508813,60.8137678 51.9970439,59.7121845 C51.0779102,57.734193 50.4803801,55.6263287 50.0180168,53.8258612 C49.7886994,52.932635 49.5463315,52.0281968 49.3123533,51.152723 L49.280659,51.0359309 C49.1706613,50.6220196 49.0336302,50.0819728 48.9450727,49.5578097 C48.8962639,49.2667651 49.0883832,48.9899558 49.3776062,48.9346069 C49.9033581,48.8336985 50.4570755,48.9271322 50.9930815,49.0177629 C51.2445632,49.0657727 51.4985069,49.0997725 51.7537438,49.1196056 C52.5880487,49.1616508 53.1837144,49.0738231 53.6861617,48.8336985 C53.9275974,48.7187751 54.2836918,48.3861511 54.6286,48.0656735 C55.3557037,47.3892135 56.1070442,46.6884607 56.9217732,46.7688137 C57.3943906,46.8145962 57.7691286,47.0874226 58.0991219,47.3294159 C58.3405576,47.5050713 58.565214,47.6713832 58.777752,47.7124941 C59.1254567,47.781635 59.5384143,47.7265091 59.97188,47.5536568 C60.2000982,47.454931 60.4206985,47.3393793 60.6318664,47.2079521 C60.8183033,47.099569 61.0047401,46.9874485 61.2135494,46.8893432 C61.3839164,46.8082431 61.5841078,46.8218173 61.7420249,46.9251772 C61.8999419,47.0285371 61.9928401,47.2067959 61.9872623,47.3957538 L61.9872623,47.6256007 C61.9872623,47.7928471 61.9872623,47.9656994 61.9695508,48.1432234 C61.9499749,48.3450402 61.9313312,48.5477914 61.9136197,48.7496082 C61.8688749,49.2476098 61.8204013,49.7614952 61.7542162,50.2697745 C61.6544725,51.0107038 61.5798978,51.7768601 61.5081196,52.5177894 C61.4400701,53.2120018 61.3701563,53.9286383 61.2797345,54.6349971 C60.9879608,56.9073047 60.5908503,58.7320649 60.0306076,60.3764981 C59.6935393,61.3460834 59.2837623,62.288717 58.8047853,63.1963272 C58.7768198,63.2505188 58.7460577,63.3112507 58.7115669,63.3747856 C58.3759806,64.0419022 57.8157379,65.1575006 56.8471984,65.2434596 C56.8052501,65.2481313 56.7614375,65.25 56.718557,65.25 Z M50.1345398,49.9894734 C50.1988605,50.2744462 50.2687743,50.5444696 50.3209766,50.7546954 L50.3517387,50.8714876 C50.5866491,51.74883 50.8299492,52.6570056 51.0601987,53.5549035 C51.5104437,55.3077197 52.0856014,57.3557865 52.9721086,59.2543593 C53.4521835,60.2868017 54.0739504,61.3042948 54.9296955,62.4563323 L55.0648622,62.6431997 C55.4069738,63.1103682 56.2105166,64.2156889 56.7427938,64.1661691 C57.10821,64.1325329 57.5463366,63.2598621 57.7337056,62.887996 C57.7681965,62.8188551 57.8008229,62.7553201 57.8269241,62.7011286 C58.2805999,61.841912 58.6688718,60.949573 58.9884256,60.0317277 C59.5244315,58.4573698 59.9056949,56.7008162 60.1881467,54.5023212 C60.2813651,53.8127805 60.3456859,53.1008157 60.4128031,52.4178153 C60.4864457,51.6703457 60.5619526,50.892043 60.6635607,50.1314926 C60.7288136,49.6465717 60.7735584,49.1438984 60.8173711,48.6580431 L60.847201,48.3328939 C60.6891067,48.4214914 60.5256577,48.5001281 60.3578042,48.5683468 C59.7295121,48.8187491 59.1058808,48.8925617 58.5530956,48.7832443 C58.1093759,48.6954166 57.7579424,48.4394083 57.4475251,48.2132987 C57.2070216,48.0385777 56.981433,47.8732 56.8015214,47.8554476 C56.4743247,47.8264832 55.7966268,48.4515547 55.3501106,48.8673346 C54.9268989,49.2616249 54.5269919,49.633491 54.1382711,49.8203584 C53.2657466,50.2370727 52.3205118,50.2426787 51.6856944,50.2099769 C51.3885664,50.1885403 51.0928966,50.1501704 50.8001193,50.0950535 C50.5838526,50.0483366 50.3517387,50.0090945 50.1345398,49.9894734 Z" id="Shape" fill="#505050"></path>
            <path d="M50.025,52.1217883 C50.025,52.1217883 51.4860087,50.8748819 54.3430487,51.152941 C56.9687295,51.4048413 60.6931203,52.9036481 60.8998669,55.5786354 C60.9166035,58.4609561 59.3522215,62.1667969 58.0339663,64.3399214 C56.7157111,66.5130458 55.7420335,64.3399214 54.2229388,62.5514293 C52.7038442,60.7629372 51.449582,56.7005606 51.1374932,55.8973862 C50.8254044,55.0942118 50.025,52.1217883 50.025,52.1217883 Z" id="Shape" fill="#E27171"></path>
            <path d="M57.4583941,65.25 C56.565538,65.25 55.8902604,64.3626693 55.1130541,63.3390493 C54.866073,63.0133081 54.6102712,62.677901 54.337808,62.3569927 C52.9921532,60.7688834 51.8983799,57.6361615 51.3730551,56.1302125 C51.2848476,55.8779322 51.2152616,55.6778479 51.1701778,55.5628235 C50.8536108,54.7431542 50.0773846,51.861746 50.0440617,51.7399555 C49.9882896,51.5326387 50.0571252,51.3120965 50.2214569,51.1715999 C50.2881026,51.1145711 51.8954397,49.7739091 54.9484001,50.0667863 C56.4636093,50.2127415 58.1081896,50.726968 59.3470152,51.4422455 C60.9670934,52.3779057 61.8805313,53.6074096 61.9873604,54.9983343 L61.9873604,55.0379645 C62.0040219,57.9068071 60.5260558,61.6417152 59.0539702,64.0707588 C58.5913708,64.8343658 58.0905481,65.2200357 57.5250398,65.2490334 L57.4583941,65.25 Z M51.2485845,51.8308151 C51.4730236,52.651451 52.0042289,54.5653015 52.2345486,55.1626548 C52.2855129,55.2950778 52.3580391,55.5019283 52.4491869,55.7648411 C52.9137465,57.0939039 54.0006592,60.2111603 55.2110625,61.6368823 C55.5050875,61.9800221 55.7667699,62.3289616 56.0225717,62.6653353 C56.4969321,63.2887866 57.1428072,64.1442197 57.468195,64.1268211 C57.5818847,64.1210215 57.8014234,63.9518681 58.0797671,63.4937039 C59.4224817,61.278277 60.8602643,57.6999565 60.8524236,55.0640625 C60.6564069,52.7684085 57.2261143,51.4132477 54.8386307,51.1841656 C52.9509897,51.0034131 51.7562678,51.5321384 51.2485845,51.8308151 Z" id="Shape" fill="#505050"></path>
            <path d="M55.4642154,43.0900498 C55.4859431,43.2599866 55.7129885,43.3842713 56.0598193,43.4160833 C56.40665,43.4478954 56.8205692,43.3824015 57.1456456,43.2442743 C57.4707219,43.1061472 57.6575639,42.9163736 57.6357846,42.746445 C57.6140569,42.5765082 57.3870115,42.4522235 57.0401807,42.4204115 C56.69335,42.3885994 56.2794308,42.4540933 55.9543544,42.5922205 C55.6292781,42.7303476 55.4424361,42.9201212 55.4642154,43.0900498 Z" id="Shape" fill="#000000"></path>
            <path d="M55.632729,44.5875 C55.0063922,44.5875 54.4560902,44.3629712 54.3829067,43.7893002 C54.2878632,43.0696854 55.0653192,42.6026655 55.8731891,42.4589671 C56.2172784,42.3911474 56.568929,42.3976137 56.9110643,42.478052 C57.4746723,42.6307316 57.6029811,43.0023268 57.6295933,43.2111385 C57.7246368,43.9307533 56.9471808,44.3977732 56.1393109,44.5414716 C55.9716494,44.5716226 55.802322,44.5870078 55.632729,44.5875 Z M55.375161,43.6130451 C55.8055917,43.6705739 56.2412571,43.5931317 56.6382894,43.3885163 C56.2078587,43.3309875 55.7721933,43.4084296 55.375161,43.6130451 Z" id="Shape" fill="#000000"></path>
        </g>
    </g>
</svg>