<svg xmlns="http://www.w3.org/2000/svg" xmlns:xlink="http://www.w3.org/1999/xlink" viewBox="0 0 48 48" version="1.1">
<g id="surface1">
<path style=" fill:#4DB6AC;" d="M 40 45 L 8 45 L 8 3 L 30 3 L 40 13 Z "></path>
<path style=" fill:#E0F2F1;" d="M 38.5 14 L 29 14 L 29 4.5 Z "></path>
<path style=" fill:#00695C;" d="M 13.007813 23 L 15 23 L 15 29.828125 C 15 30.785156 14.734375 31.554688 14.199219 32.132813 C 13.667969 32.710938 12.980469 33 12.140625 33 C 11.238281 33 10.535156 32.730469 10.035156 32.195313 C 9.53125 31.65625 9.28125 30.910156 9.28125 29.949219 L 11.28125 29.949219 C 11.28125 30.882813 11.566406 31.347656 12.140625 31.347656 C 12.71875 31.347656 13.007813 30.808594 13.007813 29.734375 Z M 20.398438 30.3125 C 20.398438 29.917969 20.296875 29.617188 20.09375 29.414063 C 19.890625 29.210938 19.523438 29 18.988281 28.785156 C 18.011719 28.414063 17.308594 27.980469 16.882813 27.484375 C 16.453125 26.984375 16.238281 26.398438 16.238281 25.71875 C 16.238281 24.902344 16.527344 24.242188 17.109375 23.746094 C 17.695313 23.246094 18.433594 23 19.328125 23 C 19.925781 23 20.460938 23.125 20.925781 23.378906 C 21.394531 23.628906 21.753906 23.984375 22.007813 24.445313 C 22.257813 24.902344 22.382813 25.425781 22.382813 26.007813 L 20.425781 26.007813 C 20.425781 25.554688 20.328125 25.207031 20.132813 24.96875 C 19.941406 24.730469 19.660156 24.613281 19.296875 24.613281 C 18.953125 24.613281 18.683594 24.710938 18.492188 24.914063 C 18.300781 25.117188 18.207031 25.390625 18.207031 25.734375 C 18.207031 26.003906 18.3125 26.242188 18.527344 26.460938 C 18.742188 26.675781 19.121094 26.898438 19.664063 27.128906 C 20.613281 27.472656 21.304688 27.894531 21.730469 28.394531 C 22.164063 28.894531 22.378906 29.527344 22.378906 30.300781 C 22.378906 31.148438 22.109375 31.808594 21.570313 32.285156 C 21.027344 32.761719 20.296875 33 19.367188 33 C 18.742188 33 18.167969 32.871094 17.652344 32.613281 C 17.132813 32.355469 16.730469 31.984375 16.4375 31.503906 C 16.144531 31.019531 16 30.453125 16 29.800781 L 17.972656 29.800781 C 17.972656 30.359375 18.082031 30.765625 18.300781 31.019531 C 18.515625 31.273438 18.875 31.402344 19.367188 31.402344 C 20.054688 31.402344 20.398438 31.039063 20.398438 30.3125 Z M 38 33 L 35.988281 33 L 33.050781 26.472656 L 33.050781 33 L 31.039063 33 L 31.039063 23.046875 L 33.050781 23.046875 L 35.996094 29.582031 L 35.996094 23.046875 L 38 23.046875 Z M 30 28.875 C 30 30.179688 29.691406 31.195313 29.074219 31.917969 C 28.460938 32.640625 27.605469 33 26.511719 33 C 25.421875 33 24.566406 32.640625 23.945313 31.925781 C 23.324219 31.214844 23.007813 30.210938 23 28.921875 L 23 27.257813 C 23 25.921875 23.308594 24.878906 23.925781 24.128906 C 24.542969 23.375 25.402344 23 26.5 23 C 27.578125 23 28.429688 23.367188 29.054688 24.109375 C 29.675781 24.84375 29.988281 25.878906 30 27.210938 Z M 28.03125 27.242188 C 28.03125 26.367188 27.90625 25.714844 27.660156 25.285156 C 27.410156 24.859375 27.023438 24.644531 26.5 24.644531 C 25.980469 24.644531 25.59375 24.851563 25.347656 25.261719 C 25.097656 25.671875 24.96875 26.300781 24.960938 27.144531 L 24.960938 28.875 C 24.960938 29.726563 25.085938 30.351563 25.339844 30.757813 C 25.59375 31.160156 25.984375 31.359375 26.511719 31.359375 C 27.023438 31.359375 27.402344 31.164063 27.652344 30.769531 C 27.902344 30.375 28.027344 29.765625 28.03125 28.9375 Z "></path>
</g>
</svg>