<svg xmlns="http://www.w3.org/2000/svg" xmlns:xlink="http://www.w3.org/1999/xlink" viewBox="0 0 40 40" version="1.1">
<g id="surface1">
<path style=" fill:#DFF0FE;" d="M 35.230469 38 L 4.769531 38 C 3.238281 38 2 36.761719 2 35.230469 L 2 4.769531 C 2 3.238281 3.238281 2 4.769531 2 L 35.230469 2 C 36.761719 2 38 3.238281 38 4.769531 L 38 35.230469 C 38 36.761719 36.761719 38 35.230469 38 Z "></path>
<path style=" fill:#98CCFD;" d="M 2 23.292969 L 2 24.707031 L 24.707031 2 L 23.292969 2 Z "></path>
<path style=" fill:#98CCFD;" d="M 35.285156 2.007813 L 2.007813 35.285156 C 2.015625 35.695313 2.113281 36.078125 2.28125 36.425781 L 36.425781 2.28125 C 36.078125 2.113281 35.695313 2.015625 35.285156 2.007813 Z "></path>
<path style=" fill:#98CCFD;" d="M 2 19.292969 L 2 20.707031 L 20.707031 2 L 19.292969 2 Z "></path>
<path style=" fill:#98CCFD;" d="M 2 27.292969 L 2 28.707031 L 28.707031 2 L 27.292969 2 Z "></path>
<path style=" fill:#98CCFD;" d="M 2 7.292969 L 2 8.707031 L 8.707031 2 L 7.292969 2 Z "></path>
<path style=" fill:#98CCFD;" d="M 15.292969 2 L 2 15.292969 L 2 16.707031 L 16.707031 2 Z "></path>
<path style=" fill:#98CCFD;" d="M 31.292969 2 L 2 31.292969 L 2 32.707031 L 32.707031 2 Z "></path>
<path style=" fill:#98CCFD;" d="M 11.292969 2 L 2 11.292969 L 2 12.707031 L 12.707031 2 Z "></path>
<path style=" fill:#98CCFD;" d="M 38 28.707031 L 38 27.292969 L 27.292969 38 L 28.707031 38 Z "></path>
<path style=" fill:#98CCFD;" d="M 38 24.707031 L 38 23.292969 L 23.292969 38 L 24.707031 38 Z "></path>
<path style=" fill:#98CCFD;" d="M 38 20.707031 L 38 19.292969 L 19.292969 38 L 20.707031 38 Z "></path>
<path style=" fill:#98CCFD;" d="M 38 32.707031 L 38 31.292969 L 31.292969 38 L 32.707031 38 Z "></path>
<path style=" fill:#98CCFD;" d="M 38 16.707031 L 38 15.292969 L 15.292969 38 L 16.707031 38 Z "></path>
<path style=" fill:#98CCFD;" d="M 38 8.707031 L 38 7.292969 L 7.292969 38 L 8.707031 38 Z "></path>
<path style=" fill:#98CCFD;" d="M 38 12.707031 L 38 11.292969 L 11.292969 38 L 12.707031 38 Z "></path>
<path style=" fill:#98CCFD;" d="M 37.992188 4.714844 C 37.984375 4.304688 37.886719 3.921875 37.71875 3.574219 L 3.574219 37.71875 C 3.921875 37.886719 4.304688 37.984375 4.714844 37.996094 Z "></path>
<path style=" fill:#DFF0FE;" d="M 3 10 L 37 10 L 37 30 L 3 30 Z "></path>
<path style=" fill:#4788C7;" d="M 7.996094 14.910156 C 7.863281 14.390625 8.253906 14 8.773438 14 C 9.296875 14 9.8125 14.390625 9.945313 14.910156 C 10.074219 15.429688 9.8125 15.820313 9.296875 15.820313 C 8.773438 15.820313 8.125 15.429688 7.996094 14.910156 Z "></path>
<path style=" fill:#4788C7;" d="M 12 27 L 10.386719 27 L 8.542969 17.480469 L 10.15625 17.480469 Z "></path>
<path style=" fill:#4788C7;" d="M 22 20.425781 C 21.976563 20.996094 21.835938 21.53125 21.558594 22.019531 C 21.054688 22.90625 20.210938 23.507813 19.03125 23.820313 C 17.882813 24.128906 16.871094 24.035156 15.992188 23.542969 C 15.117188 23.050781 14.519531 22.242188 14.203125 21.125 C 13.859375 19.90625 13.949219 18.859375 14.472656 17.980469 C 14.992188 17.105469 15.859375 16.503906 17.070313 16.179688 C 18.234375 15.867188 19.230469 15.960938 20.070313 16.449219 C 20.648438 16.789063 21.097656 17.308594 21.433594 17.976563 L 19.675781 18.449219 C 19.5 18.160156 19.292969 17.929688 19.050781 17.761719 C 18.570313 17.421875 18 17.339844 17.339844 17.519531 C 16.679688 17.695313 16.222656 18.058594 15.964844 18.609375 C 15.710938 19.160156 15.691406 19.832031 15.914063 20.621094 C 16.128906 21.378906 16.492188 21.925781 17.003906 22.261719 C 17.515625 22.59375 18.09375 22.671875 18.742188 22.496094 C 19.40625 22.320313 19.855469 21.96875 20.09375 21.441406 C 20.164063 21.285156 20.171875 21.089844 20.199219 20.910156 Z "></path>
<path style=" fill:#4788C7;" d="M 24.238281 23.257813 C 24.355469 22.894531 24.507813 22.542969 24.695313 22.207031 C 24.882813 21.867188 25.097656 21.554688 25.339844 21.269531 C 25.585938 20.984375 25.859375 20.730469 26.160156 20.503906 C 26.464844 20.277344 26.792969 20.09375 27.144531 19.957031 C 26.789063 19.648438 26.558594 19.253906 26.449219 18.773438 C 26.335938 18.296875 26.375 17.765625 26.566406 17.1875 C 26.714844 16.726563 26.933594 16.296875 27.222656 15.90625 C 27.507813 15.515625 27.835938 15.179688 28.210938 14.894531 C 28.582031 14.609375 28.984375 14.390625 29.417969 14.230469 C 29.847656 14.074219 30.289063 13.996094 30.734375 14 C 31.1875 14.003906 31.574219 14.089844 31.90625 14.257813 C 32.234375 14.421875 32.488281 14.652344 32.675781 14.941406 C 32.859375 15.230469 32.96875 15.570313 32.996094 15.964844 C 33.023438 16.355469 32.960938 16.78125 32.8125 17.238281 C 32.621094 17.816406 32.316406 18.34375 31.894531 18.820313 C 31.472656 19.296875 30.988281 19.683594 30.445313 19.984375 C 30.703125 20.125 30.910156 20.3125 31.066406 20.539063 C 31.222656 20.765625 31.332031 21.023438 31.394531 21.3125 C 31.457031 21.597656 31.46875 21.914063 31.4375 22.253906 C 31.402344 22.59375 31.328125 22.945313 31.207031 23.316406 C 31.027344 23.867188 30.777344 24.367188 30.460938 24.824219 C 30.140625 25.277344 29.773438 25.667969 29.363281 25.988281 C 28.949219 26.3125 28.5 26.5625 28.015625 26.738281 C 27.527344 26.917969 27.027344 27.003906 26.511719 27 C 26 26.996094 25.5625 26.902344 25.195313 26.714844 C 24.832031 26.53125 24.546875 26.273438 24.34375 25.949219 C 24.140625 25.621094 24.03125 25.226563 24.007813 24.769531 C 23.980469 24.3125 24.058594 23.808594 24.238281 23.257813 Z M 25.941406 23.097656 C 25.824219 23.453125 25.765625 23.773438 25.757813 24.0625 C 25.753906 24.351563 25.796875 24.59375 25.894531 24.796875 C 25.988281 24.996094 26.132813 25.148438 26.324219 25.257813 C 26.515625 25.363281 26.75 25.417969 27.027344 25.421875 C 27.292969 25.421875 27.554688 25.371094 27.816406 25.265625 C 28.074219 25.15625 28.316406 25.003906 28.546875 24.804688 C 28.773438 24.601563 28.980469 24.363281 29.167969 24.078125 C 29.351563 23.796875 29.503906 23.480469 29.617188 23.128906 C 29.722656 22.804688 29.777344 22.503906 29.78125 22.21875 C 29.789063 21.933594 29.746094 21.683594 29.652344 21.472656 C 29.5625 21.261719 29.425781 21.09375 29.238281 20.96875 C 29.050781 20.84375 28.820313 20.78125 28.542969 20.777344 C 28.28125 20.773438 28.019531 20.828125 27.757813 20.941406 C 27.492188 21.054688 27.246094 21.214844 27.015625 21.421875 C 26.785156 21.625 26.574219 21.871094 26.390625 22.160156 C 26.203125 22.445313 26.054688 22.757813 25.941406 23.097656 Z M 28.15625 17.410156 C 28.070313 17.675781 28.03125 17.917969 28.035156 18.144531 C 28.039063 18.371094 28.078125 18.566406 28.15625 18.734375 C 28.230469 18.902344 28.34375 19.035156 28.492188 19.128906 C 28.636719 19.226563 28.8125 19.273438 29.015625 19.273438 C 29.222656 19.277344 29.425781 19.230469 29.636719 19.136719 C 29.84375 19.039063 30.042969 18.910156 30.230469 18.742188 C 30.417969 18.578125 30.589844 18.382813 30.738281 18.160156 C 30.890625 17.933594 31.007813 17.695313 31.09375 17.4375 C 31.179688 17.171875 31.222656 16.925781 31.222656 16.699219 C 31.21875 16.46875 31.179688 16.273438 31.101563 16.105469 C 31.023438 15.941406 30.910156 15.8125 30.761719 15.71875 C 30.613281 15.621094 30.433594 15.574219 30.226563 15.570313 C 30.007813 15.570313 29.792969 15.617188 29.582031 15.710938 C 29.371094 15.808594 29.171875 15.9375 28.988281 16.109375 C 28.804688 16.277344 28.640625 16.472656 28.496094 16.699219 C 28.351563 16.921875 28.238281 17.160156 28.15625 17.410156 Z "></path>
<path style=" fill:#4788C7;" d="M 35.230469 3 C 36.207031 3 37 3.792969 37 4.769531 L 37 35.230469 C 37 36.207031 36.207031 37 35.230469 37 L 4.769531 37 C 3.792969 37 3 36.207031 3 35.230469 L 3 4.769531 C 3 3.792969 3.792969 3 4.769531 3 L 35.230469 3 M 35.230469 2 L 4.769531 2 C 3.238281 2 2 3.238281 2 4.769531 L 2 35.230469 C 2 36.761719 3.238281 38 4.769531 38 L 35.230469 38 C 36.761719 38 38 36.761719 38 35.230469 L 38 4.769531 C 38 3.238281 36.761719 2 35.230469 2 Z "></path>
</g>
</svg>