<svg width="42px" height="42px" viewBox="0 0 42 42">
	<desc>Created with Sketch.</desc>
	<defs>
		<filter x="-20.6%" y="-14.7%" width="144.1%" height="144.1%" filterUnits="objectBoundingBox" id="filter-1">
			<feOffset dx="0" dy="2" in="SourceAlpha" result="shadowOffsetOuter1"></feOffset>
			<feGaussianBlur stdDeviation="2" in="shadowOffsetOuter1" result="shadowBlurOuter1"></feGaussianBlur>
			<feColorMatrix values="0 0 0 0 0   0 0 0 0 0   0 0 0 0 0  0 0 0 0.5 0" type="matrix" in="shadowBlurOuter1" result="shadowMatrixOuter1"></feColorMatrix>
			<feMerge>
				<feMergeNode in="shadowMatrixOuter1"></feMergeNode>
				<feMergeNode in="SourceGraphic"></feMergeNode>
			</feMerge>
		</filter>
		<linearGradient x1="0%" y1="0%" x2="101.999998%" y2="100.999999%" id="linearGradient-2">
			<stop stop-color="#3023AE" offset="0%"></stop>
			<stop stop-color="#C86DD7" offset="100%"></stop>
		</linearGradient>
		<linearGradient x1="50%" y1="0%" x2="50%" y2="100%" id="linearGradient-3">
			<stop stop-color="#F5515F" offset="0%"></stop>
			<stop stop-color="#9F041B" offset="100%"></stop>
		</linearGradient>
	</defs>
	<g id="å°LOGO" stroke="none" stroke-width="1" fill="none" fill-rule="evenodd">
		<g id="19949" filter="url(#filter-1)" transform="translate(4.000000, 2.000000)" fill-rule="nonzero">
			<path d="M24.2268059,8.88288288 C24.0414556,8.88288288 23.8915548,9.02028843 23.8918925,9.18918919 C23.8918925,9.27379396 23.92903,9.35037053 23.9898006,9.40564153 C24.0505712,9.4612213 24.1342996,9.4954955 24.2268059,9.4954955 L28.1519101,9.4954955 C28.3365852,9.4954955 28.4868235,9.3587075 28.4864859,9.18949797 C28.4868235,9.01997966 28.3365852,8.88319166 28.1515725,8.88288288 L24.2268059,8.88288288 L24.2268059,8.88288288 Z" id="Shape" fill="url(#linearGradient-2)"></path>
			<path d="M31.2432432,6.43243243 C31.2432432,6.2632229 31.0933535,6.12612613 30.9083543,6.12612613 L26.9835375,6.12612613 C26.7985384,6.12612613 26.6486486,6.2632229 26.6486486,6.43243243 C26.6486486,6.51672842 26.6861211,6.59361378 26.7465496,6.64888477 C26.8073158,6.70446455 26.8913756,6.73873874 26.9838751,6.73873874 L30.9083543,6.73873874 C31.0933535,6.73842996 31.2432432,6.60164196 31.2432432,6.43243243 Z" id="Shape" fill="url(#linearGradient-2)"></path>
			<path d="M6.4311,29.036 C6.21112,29.0428 6.00338,29.04212 5.80686,29.036 L5.74668,29.036 L5.74668,29.0343 C4.52098,28.9901 3.78828,28.7419 3.78828,28.7419 L19.312,13.21818 L26.0678,13.07436 C26.0678,13.07436 20.74918,16.66782 19.31166,18.10534 C17.87448,19.54286 22.47434,17.96118 16.07792,24.35794 C13.75742,26.67844 11.50458,27.88918 9.57406,28.4937 L33.9048,28.4937 C33.9626,28.14384 34,27.78786 34,27.42202 L34,6.57832 C34,6.53412 33.99422,6.49128 33.9932,6.44742 L28.1248,12.31582 L19.4871,12.31582 C19.49764,11.42604 19.84002,10.53864 20.51526,9.8634 L29.89416,0.48484 C29.13052,0.17442 28.29718,0 27.42168,0 L6.57832,0 C2.94508,0 0,2.94508 0,6.57832 L0,27.42236 C0,31.05492 2.94508,34 6.57832,34 L27.42202,34 C30.49698,34 33.0718,31.8869 33.79226,29.036 L6.4311,29.036 Z" id="Shape" fill="url(#linearGradient-2)"></path>
			<path d="M33.3873874,3.97796991 C33.2980974,3.76965076 33.1993372,3.56596092 33.0860336,3.36936937 L29.4346131,3.36936937 C29.2492687,3.36936937 29.0990991,3.50639708 29.0990991,3.67552137 C29.0990991,3.76008351 29.1366415,3.83631289 29.197521,3.89186466 C29.2580624,3.94741643 29.3419409,3.98198198 29.4346131,3.98198198 L33.366756,3.98167336 C33.3741968,3.98167336 33.3799466,3.97858715 33.3873874,3.97796991 Z" id="Shape" fill="url(#linearGradient-2)"></path>
			<path d="M11.9914327,25.0828028 L17.1182634,19.9553901 C17.4811626,19.5921621 17.5686203,19.0868596 17.3126139,18.8315277 C17.0572776,18.5755257 16.5516314,18.6629819 16.1887322,19.0258748 L11.0619014,24.1532875 C10.6993373,24.5151752 10.6115445,25.0214829 10.8672158,25.2771499 C11.1228872,25.5324818 11.6292036,25.4446905 11.9914327,25.0828028 Z" id="Shape" fill="url(#linearGradient-3)"></path>
		</g>
	</g>
</svg>
